<svg width="288" height="234" viewBox="0 0 288 234" fill="none" xmlns="http://www.w3.org/2000/svg">
<g clip-path="url(#clip0_1_22)">
<path d="M96.8514 234C40.4435 220.173 0 181.882 0 137.209C0 102.747 23.8404 72.3273 60.4523 53.6073L71.3082 64.4564C63.0066 72.7527 56.408 82.1127 51.5122 91.8982C51.0865 92.7491 50.6608 93.6 50.235 94.4509C49.3836 96.3655 48.5321 98.28 47.8936 100.195C47.6807 100.833 47.255 101.684 47.0421 102.322C47.0421 102.322 47.0421 102.535 47.0421 102.747C46.8293 103.598 46.4035 104.449 46.1907 105.3C45.5521 107.215 44.9135 109.129 44.4878 111.256C44.2749 112.107 44.0621 112.958 43.8492 113.809C43.4235 115.936 42.9978 118.064 42.5721 120.191C42.5721 121.042 42.3592 121.68 42.1463 122.531C42.1463 123.595 41.9335 124.445 41.7206 125.509C41.7206 126.36 41.7206 126.998 41.5078 127.849C41.5078 128.062 41.5078 128.275 41.5078 128.487C41.5078 129.338 41.5078 130.402 41.5078 131.253C41.5078 132.104 41.5078 132.955 41.5078 133.805C41.5078 133.805 41.5078 134.231 41.5078 134.444C41.5078 135.295 41.5078 136.358 41.5078 137.209C41.5078 144.655 42.3592 151.887 43.8492 159.12C44.2749 160.822 44.4878 162.311 45.1264 164.013C45.1264 164.651 45.5521 165.289 45.765 165.927C46.4035 168.055 47.0421 170.395 47.8936 172.522C47.8936 173.16 48.3193 173.585 48.5321 174.224C48.745 174.862 48.9579 175.5 49.1707 176.138C50.0222 178.053 50.8736 179.967 51.7251 181.882C51.9379 182.307 52.1508 182.945 52.3636 183.371C53.0022 184.647 53.6408 185.711 54.2794 186.987C54.918 188.051 55.3437 188.902 55.9823 189.753C56.408 190.391 56.6208 191.029 57.0466 191.455L58.3237 193.369C59.6009 195.284 60.878 197.198 62.3681 198.9C62.7938 199.325 63.0066 199.751 63.4324 200.176C63.8581 200.602 64.2838 201.24 64.7095 201.878C65.1353 202.304 65.561 202.942 65.9867 203.367C66.1996 203.58 66.4124 204.005 66.8381 204.431C67.2639 204.856 67.6896 205.282 68.1153 205.707C68.7539 206.345 69.1796 206.984 69.8182 207.622C70.4568 208.26 71.0953 208.898 71.7339 209.536" fill="#6678E2"/>
<path d="M191.361 234C247.769 220.173 288.213 181.882 288.213 137.209C288.213 102.747 264.373 72.3273 227.761 53.6073L216.905 64.4564C225.206 72.7527 231.805 82.1127 236.701 91.8982C237.126 92.7491 237.552 93.6 237.978 94.4509C238.829 96.3655 239.681 98.28 240.319 100.195C240.532 100.833 240.958 101.684 241.171 102.322C241.171 102.322 241.171 102.535 241.171 102.747C241.384 103.598 241.809 104.449 242.022 105.3C242.661 107.215 243.299 109.129 243.725 111.256C243.938 112.107 244.151 112.958 244.364 113.809C244.789 115.936 245.215 118.064 245.641 120.191C245.641 121.042 245.854 121.68 246.067 122.531C246.067 123.595 246.279 124.445 246.492 125.509C246.492 126.36 246.492 126.998 246.705 127.849C246.705 128.062 246.705 128.275 246.705 128.487C246.705 129.338 246.705 130.402 246.705 131.253C246.705 132.104 246.705 132.955 246.705 133.805C246.705 133.805 246.705 134.231 246.705 134.444C246.705 135.295 246.705 136.358 246.705 137.209C246.705 144.655 245.854 151.887 244.364 159.12C243.938 160.822 243.725 162.311 243.086 164.013C243.086 164.651 242.661 165.289 242.448 165.927C241.809 168.055 241.171 170.395 240.319 172.522C240.319 173.16 239.894 173.585 239.681 174.224C239.468 174.862 239.255 175.5 239.042 176.138C238.191 178.053 237.339 179.967 236.488 181.882C236.275 182.307 236.062 182.945 235.849 183.371C235.211 184.647 234.572 185.711 233.934 186.987C233.295 188.051 232.869 188.902 232.231 189.753C231.805 190.391 231.592 191.029 231.166 191.455L229.889 193.369C228.612 195.284 227.335 197.198 225.845 198.9C225.419 199.325 225.206 199.751 224.781 200.176C224.355 200.602 223.929 201.24 223.503 201.878C223.078 202.304 222.652 202.942 222.226 203.367C222.013 203.58 221.8 204.005 221.375 204.431C220.949 204.856 220.523 205.282 220.098 205.707C219.459 206.345 219.033 206.984 218.395 207.622C217.756 208.26 217.118 208.898 216.479 209.536" fill="#6678E2"/>
<path d="M171.991 160.609C171.991 164.438 161.135 182.733 143.681 182.733C126.226 182.733 121.969 169.544 121.969 165.715C121.969 161.885 126.013 175.925 143.681 175.925C161.348 175.925 171.991 156.78 171.991 160.609Z" fill="#191E39"/>
<path d="M191.361 8.29636V45.7364C191.149 45.7364 190.936 45.5236 190.723 45.3109C190.084 44.8855 189.446 44.6727 188.807 44.2473C188.807 44.2473 188.807 44.2473 188.594 44.2473C187.743 43.8218 186.891 43.3964 186.253 43.1836C185.188 42.7582 184.124 42.3327 183.06 41.9073C182.208 41.4818 181.144 41.2691 180.293 40.8436C179.228 40.4182 178.377 40.2055 177.313 39.78C176.248 39.3545 175.397 39.1418 174.333 38.9291C173.907 38.9291 173.481 38.7164 173.055 38.5036C171.565 38.0782 170.075 37.6527 168.798 37.44C168.372 37.44 167.947 37.2273 167.521 37.0145C167.095 37.0145 166.67 36.8018 166.244 36.8018C165.605 36.8018 165.18 36.5891 164.541 36.3764C163.69 36.3764 162.838 35.9509 162.2 35.9509C161.348 35.9509 160.71 35.7382 159.858 35.5255C158.794 35.5255 157.729 35.3127 156.878 35.1C156.027 35.1 155.175 35.1 154.111 34.8873C153.898 34.8873 153.472 34.8873 153.259 34.8873C152.621 34.8873 151.769 34.8873 151.131 34.8873C149.854 34.8873 148.364 34.8873 147.086 34.8873C146.448 34.8873 145.596 34.8873 144.958 34.8873C143.468 34.8873 141.978 34.8873 140.701 34.8873H140.488C139.636 34.8873 138.785 34.8873 138.146 34.8873C137.295 34.8873 136.656 34.8873 135.805 34.8873C133.889 34.8873 131.761 35.3127 129.845 35.5255C129.845 35.5255 129.419 35.5255 129.206 35.5255C128.355 35.5255 127.503 35.7382 126.652 35.9509C125.588 35.9509 124.736 36.3764 123.672 36.5891C123.246 36.5891 122.82 36.5891 122.395 36.8018C120.692 37.2273 118.989 37.6527 117.073 38.0782C116.222 38.2909 115.37 38.5036 114.306 38.9291C114.093 38.9291 113.88 38.9291 113.667 39.1418C112.816 39.3545 111.752 39.78 110.9 39.9927C108.984 40.6309 107.282 41.2691 105.366 42.12C103.45 42.9709 101.747 43.6091 100.044 44.46L145.171 89.5582L168.798 65.9454L192.426 89.5582L145.171 136.784L71.3082 64.4564L60.4523 53.6073L47.0421 40.2055C55.1308 32.1218 64.0709 25.1018 73.6496 19.5709C109.41 -1.91455 152.834 -5.74363 191.361 8.29636Z" fill="#191E39"/>
<path d="M193.277 159.333C202.564 159.333 210.093 151.809 210.093 142.527C210.093 133.246 202.564 125.722 193.277 125.722C183.99 125.722 176.461 133.246 176.461 142.527C176.461 151.809 183.99 159.333 193.277 159.333Z" fill="#191E39"/>
<path d="M99.6186 159.333C108.906 159.333 116.435 151.809 116.435 142.527C116.435 133.246 108.906 125.722 99.6186 125.722C90.3314 125.722 82.8026 133.246 82.8026 142.527C82.8026 151.809 90.3314 159.333 99.6186 159.333Z" fill="#191E39"/>
</g>
<defs>
<clipPath id="clip0_1_22">
<rect width="288" height="234" fill="white"/>
</clipPath>
</defs>
</svg>
